<mxfile host="app.diagrams.net" modified="2022-05-14T19:15:15.268Z" agent="5.0 (X11; Linux x86_64) AppleWebKit/537.36 (KHTML, like Gecko) Chrome/101.0.4951.41 Safari/537.36" etag="W5Ltkmd5pkb8nDKQg_Rj" version="18.0.4" type="github">
  <diagram id="ae7LBZ6DJG40jsGKR7rI" name="Page-1">
    <mxGraphModel dx="1550" dy="365" grid="1" gridSize="10" guides="1" tooltips="1" connect="1" arrows="1" fold="1" page="1" pageScale="1" pageWidth="827" pageHeight="1169" math="0" shadow="0">
      <root>
        <mxCell id="0" />
        <mxCell id="1" parent="0" />
        <mxCell id="K2JFEXqpJTepmIrNeF1m-1" value="&lt;span style=&quot;font-size: 12px ; font-weight: 700&quot;&gt;User&lt;/span&gt;" style="swimlane;fontStyle=0;align=center;verticalAlign=top;childLayout=stackLayout;horizontal=1;startSize=30;horizontalStack=0;resizeParent=1;resizeParentMax=0;resizeLast=0;collapsible=0;marginBottom=0;html=1;labelBackgroundColor=none;labelBorderColor=none;fontSize=11;" parent="1" vertex="1">
          <mxGeometry x="40" y="100" width="250" height="90" as="geometry" />
        </mxCell>
        <mxCell id="K2JFEXqpJTepmIrNeF1m-2" value="- monto: Integer" style="text;strokeColor=none;fillColor=none;align=left;verticalAlign=top;spacingLeft=4;spacingRight=4;overflow=hidden;rotatable=0;points=[[0,0.5],[1,0.5]];portConstraint=eastwest;" parent="K2JFEXqpJTepmIrNeF1m-1" vertex="1">
          <mxGeometry y="30" width="250" height="26" as="geometry" />
        </mxCell>
        <mxCell id="K2JFEXqpJTepmIrNeF1m-3" value="" style="line;strokeWidth=1;fillColor=none;align=left;verticalAlign=middle;spacingTop=-1;spacingLeft=3;spacingRight=3;rotatable=0;labelPosition=right;points=[];portConstraint=eastwest;labelBackgroundColor=none;labelBorderColor=none;fontSize=11;html=1;" parent="K2JFEXqpJTepmIrNeF1m-1" vertex="1">
          <mxGeometry y="56" width="250" height="8" as="geometry" />
        </mxCell>
        <mxCell id="K2JFEXqpJTepmIrNeF1m-4" value="+ new(Cliente)" style="text;strokeColor=none;fillColor=none;align=left;verticalAlign=top;spacingLeft=4;spacingRight=4;overflow=hidden;rotatable=0;points=[[0,0.5],[1,0.5]];portConstraint=eastwest;fontStyle=6" parent="K2JFEXqpJTepmIrNeF1m-1" vertex="1">
          <mxGeometry y="64" width="250" height="26" as="geometry" />
        </mxCell>
        <mxCell id="K2JFEXqpJTepmIrNeF1m-9" value="&amp;lt;&amp;lt;interface&amp;gt;&amp;gt;&lt;br&gt;&lt;span style=&quot;font-size: 12px ; font-weight: 700&quot;&gt;Factura&lt;/span&gt;" style="swimlane;fontStyle=0;align=center;verticalAlign=top;childLayout=stackLayout;horizontal=1;startSize=42;horizontalStack=0;resizeParent=1;resizeParentMax=0;resizeLast=0;collapsible=0;marginBottom=0;html=1;labelBackgroundColor=none;labelBorderColor=none;fontSize=11;" parent="1" vertex="1">
          <mxGeometry x="370" y="100" width="260" height="70" as="geometry" />
        </mxCell>
        <mxCell id="K2JFEXqpJTepmIrNeF1m-10" value="" style="line;strokeWidth=1;fillColor=none;align=left;verticalAlign=middle;spacingTop=-1;spacingLeft=3;spacingRight=3;rotatable=0;labelPosition=right;points=[];portConstraint=eastwest;labelBackgroundColor=none;labelBorderColor=none;fontSize=11;html=1;" parent="K2JFEXqpJTepmIrNeF1m-9" vertex="1">
          <mxGeometry y="42" width="260" height="8" as="geometry" />
        </mxCell>
        <mxCell id="K2JFEXqpJTepmIrNeF1m-11" value="&lt;span style=&quot;font-size: 12px&quot;&gt;+ montoAPagar(): double&lt;/span&gt;" style="text;html=1;strokeColor=none;fillColor=none;align=left;verticalAlign=middle;spacingLeft=4;spacingRight=4;overflow=hidden;rotatable=0;points=[[0,0.5],[1,0.5]];portConstraint=eastwest;labelBackgroundColor=none;labelBorderColor=none;fontSize=11;" parent="K2JFEXqpJTepmIrNeF1m-9" vertex="1">
          <mxGeometry y="50" width="260" height="20" as="geometry" />
        </mxCell>
        <mxCell id="pHlB20BNlkgOtDpx7atT-3" value="&lt;span style=&quot;font-size: 12px ; font-weight: 700&quot;&gt;Sample&lt;/span&gt;" style="swimlane;fontStyle=0;align=center;verticalAlign=top;childLayout=stackLayout;horizontal=1;startSize=30;horizontalStack=0;resizeParent=1;resizeParentMax=0;resizeLast=0;collapsible=0;marginBottom=0;html=1;labelBackgroundColor=none;labelBorderColor=none;fontSize=11;" vertex="1" parent="1">
          <mxGeometry x="190" y="560" width="280" height="64" as="geometry" />
        </mxCell>
        <mxCell id="pHlB20BNlkgOtDpx7atT-5" value="" style="line;strokeWidth=1;fillColor=none;align=left;verticalAlign=middle;spacingTop=-1;spacingLeft=3;spacingRight=3;rotatable=0;labelPosition=right;points=[];portConstraint=eastwest;labelBackgroundColor=none;labelBorderColor=none;fontSize=11;html=1;" vertex="1" parent="pHlB20BNlkgOtDpx7atT-3">
          <mxGeometry y="30" width="280" height="8" as="geometry" />
        </mxCell>
        <mxCell id="pHlB20BNlkgOtDpx7atT-6" value="+ identifyVinchucaSpecies(): Vinchuca" style="text;strokeColor=none;fillColor=none;align=left;verticalAlign=top;spacingLeft=4;spacingRight=4;overflow=hidden;rotatable=0;points=[[0,0.5],[1,0.5]];portConstraint=eastwest;fontStyle=0" vertex="1" parent="pHlB20BNlkgOtDpx7atT-3">
          <mxGeometry y="38" width="280" height="26" as="geometry" />
        </mxCell>
        <mxCell id="pHlB20BNlkgOtDpx7atT-14" value="&lt;span style=&quot;font-size: 12px;&quot;&gt;&lt;b&gt;Basic User&amp;nbsp;&lt;/b&gt;&lt;/span&gt;" style="swimlane;fontStyle=0;align=center;verticalAlign=top;childLayout=stackLayout;horizontal=1;startSize=30;horizontalStack=0;resizeParent=1;resizeParentMax=0;resizeLast=0;collapsible=0;marginBottom=0;html=1;labelBackgroundColor=none;labelBorderColor=none;fontSize=11;" vertex="1" parent="1">
          <mxGeometry x="50" y="410" width="250" height="90" as="geometry" />
        </mxCell>
        <mxCell id="pHlB20BNlkgOtDpx7atT-15" value="- monto: Integer" style="text;strokeColor=none;fillColor=none;align=left;verticalAlign=top;spacingLeft=4;spacingRight=4;overflow=hidden;rotatable=0;points=[[0,0.5],[1,0.5]];portConstraint=eastwest;" vertex="1" parent="pHlB20BNlkgOtDpx7atT-14">
          <mxGeometry y="30" width="250" height="26" as="geometry" />
        </mxCell>
        <mxCell id="pHlB20BNlkgOtDpx7atT-16" value="" style="line;strokeWidth=1;fillColor=none;align=left;verticalAlign=middle;spacingTop=-1;spacingLeft=3;spacingRight=3;rotatable=0;labelPosition=right;points=[];portConstraint=eastwest;labelBackgroundColor=none;labelBorderColor=none;fontSize=11;html=1;" vertex="1" parent="pHlB20BNlkgOtDpx7atT-14">
          <mxGeometry y="56" width="250" height="8" as="geometry" />
        </mxCell>
        <mxCell id="pHlB20BNlkgOtDpx7atT-17" value="+ new(Cliente)" style="text;strokeColor=none;fillColor=none;align=left;verticalAlign=top;spacingLeft=4;spacingRight=4;overflow=hidden;rotatable=0;points=[[0,0.5],[1,0.5]];portConstraint=eastwest;fontStyle=6" vertex="1" parent="pHlB20BNlkgOtDpx7atT-14">
          <mxGeometry y="64" width="250" height="26" as="geometry" />
        </mxCell>
        <mxCell id="pHlB20BNlkgOtDpx7atT-25" value="&lt;span style=&quot;font-size: 12px;&quot;&gt;&lt;b&gt;Expert User&lt;/b&gt;&lt;/span&gt;" style="swimlane;fontStyle=0;align=center;verticalAlign=top;childLayout=stackLayout;horizontal=1;startSize=30;horizontalStack=0;resizeParent=1;resizeParentMax=0;resizeLast=0;collapsible=0;marginBottom=0;html=1;labelBackgroundColor=none;labelBorderColor=none;fontSize=11;" vertex="1" parent="1">
          <mxGeometry x="400" y="380" width="250" height="90" as="geometry" />
        </mxCell>
        <mxCell id="pHlB20BNlkgOtDpx7atT-26" value="- monto: Integer" style="text;strokeColor=none;fillColor=none;align=left;verticalAlign=top;spacingLeft=4;spacingRight=4;overflow=hidden;rotatable=0;points=[[0,0.5],[1,0.5]];portConstraint=eastwest;" vertex="1" parent="pHlB20BNlkgOtDpx7atT-25">
          <mxGeometry y="30" width="250" height="26" as="geometry" />
        </mxCell>
        <mxCell id="pHlB20BNlkgOtDpx7atT-27" value="" style="line;strokeWidth=1;fillColor=none;align=left;verticalAlign=middle;spacingTop=-1;spacingLeft=3;spacingRight=3;rotatable=0;labelPosition=right;points=[];portConstraint=eastwest;labelBackgroundColor=none;labelBorderColor=none;fontSize=11;html=1;" vertex="1" parent="pHlB20BNlkgOtDpx7atT-25">
          <mxGeometry y="56" width="250" height="8" as="geometry" />
        </mxCell>
        <mxCell id="pHlB20BNlkgOtDpx7atT-28" value="+ new(Cliente)" style="text;strokeColor=none;fillColor=none;align=left;verticalAlign=top;spacingLeft=4;spacingRight=4;overflow=hidden;rotatable=0;points=[[0,0.5],[1,0.5]];portConstraint=eastwest;fontStyle=6" vertex="1" parent="pHlB20BNlkgOtDpx7atT-25">
          <mxGeometry y="64" width="250" height="26" as="geometry" />
        </mxCell>
        <mxCell id="pHlB20BNlkgOtDpx7atT-47" value="&lt;span style=&quot;font-size: 12px;&quot;&gt;&lt;b&gt;Vinchuca&lt;/b&gt;&lt;/span&gt;" style="swimlane;fontStyle=0;align=center;verticalAlign=top;childLayout=stackLayout;horizontal=1;startSize=30;horizontalStack=0;resizeParent=1;resizeParentMax=0;resizeLast=0;collapsible=0;marginBottom=0;html=1;labelBackgroundColor=none;labelBorderColor=none;fontSize=11;" vertex="1" parent="1">
          <mxGeometry x="280" y="980" width="250" height="90" as="geometry" />
        </mxCell>
        <mxCell id="pHlB20BNlkgOtDpx7atT-48" value="- monto: Integer" style="text;strokeColor=none;fillColor=none;align=left;verticalAlign=top;spacingLeft=4;spacingRight=4;overflow=hidden;rotatable=0;points=[[0,0.5],[1,0.5]];portConstraint=eastwest;" vertex="1" parent="pHlB20BNlkgOtDpx7atT-47">
          <mxGeometry y="30" width="250" height="26" as="geometry" />
        </mxCell>
        <mxCell id="pHlB20BNlkgOtDpx7atT-49" value="" style="line;strokeWidth=1;fillColor=none;align=left;verticalAlign=middle;spacingTop=-1;spacingLeft=3;spacingRight=3;rotatable=0;labelPosition=right;points=[];portConstraint=eastwest;labelBackgroundColor=none;labelBorderColor=none;fontSize=11;html=1;" vertex="1" parent="pHlB20BNlkgOtDpx7atT-47">
          <mxGeometry y="56" width="250" height="8" as="geometry" />
        </mxCell>
        <mxCell id="pHlB20BNlkgOtDpx7atT-50" value="+ new(Cliente)" style="text;strokeColor=none;fillColor=none;align=left;verticalAlign=top;spacingLeft=4;spacingRight=4;overflow=hidden;rotatable=0;points=[[0,0.5],[1,0.5]];portConstraint=eastwest;fontStyle=6" vertex="1" parent="pHlB20BNlkgOtDpx7atT-47">
          <mxGeometry y="64" width="250" height="26" as="geometry" />
        </mxCell>
        <mxCell id="pHlB20BNlkgOtDpx7atT-58" value="&lt;span style=&quot;font-size: 12px;&quot;&gt;&lt;b&gt;Sordida&lt;/b&gt;&lt;/span&gt;" style="swimlane;fontStyle=0;align=center;verticalAlign=top;childLayout=stackLayout;horizontal=1;startSize=30;horizontalStack=0;resizeParent=1;resizeParentMax=0;resizeLast=0;collapsible=0;marginBottom=0;html=1;labelBackgroundColor=none;labelBorderColor=none;fontSize=11;" vertex="1" parent="1">
          <mxGeometry x="600" y="1160" width="250" height="90" as="geometry" />
        </mxCell>
        <mxCell id="pHlB20BNlkgOtDpx7atT-59" value="- monto: Integer" style="text;strokeColor=none;fillColor=none;align=left;verticalAlign=top;spacingLeft=4;spacingRight=4;overflow=hidden;rotatable=0;points=[[0,0.5],[1,0.5]];portConstraint=eastwest;" vertex="1" parent="pHlB20BNlkgOtDpx7atT-58">
          <mxGeometry y="30" width="250" height="26" as="geometry" />
        </mxCell>
        <mxCell id="pHlB20BNlkgOtDpx7atT-60" value="" style="line;strokeWidth=1;fillColor=none;align=left;verticalAlign=middle;spacingTop=-1;spacingLeft=3;spacingRight=3;rotatable=0;labelPosition=right;points=[];portConstraint=eastwest;labelBackgroundColor=none;labelBorderColor=none;fontSize=11;html=1;" vertex="1" parent="pHlB20BNlkgOtDpx7atT-58">
          <mxGeometry y="56" width="250" height="8" as="geometry" />
        </mxCell>
        <mxCell id="pHlB20BNlkgOtDpx7atT-61" value="+ new(Cliente)" style="text;strokeColor=none;fillColor=none;align=left;verticalAlign=top;spacingLeft=4;spacingRight=4;overflow=hidden;rotatable=0;points=[[0,0.5],[1,0.5]];portConstraint=eastwest;fontStyle=6" vertex="1" parent="pHlB20BNlkgOtDpx7atT-58">
          <mxGeometry y="64" width="250" height="26" as="geometry" />
        </mxCell>
        <mxCell id="pHlB20BNlkgOtDpx7atT-69" value="&lt;span style=&quot;font-size: 12px;&quot;&gt;&lt;b&gt;Infestans&lt;/b&gt;&lt;/span&gt;" style="swimlane;fontStyle=0;align=center;verticalAlign=top;childLayout=stackLayout;horizontal=1;startSize=30;horizontalStack=0;resizeParent=1;resizeParentMax=0;resizeLast=0;collapsible=0;marginBottom=0;html=1;labelBackgroundColor=none;labelBorderColor=none;fontSize=11;" vertex="1" parent="1">
          <mxGeometry y="1150" width="250" height="90" as="geometry" />
        </mxCell>
        <mxCell id="pHlB20BNlkgOtDpx7atT-70" value="- monto: Integer" style="text;strokeColor=none;fillColor=none;align=left;verticalAlign=top;spacingLeft=4;spacingRight=4;overflow=hidden;rotatable=0;points=[[0,0.5],[1,0.5]];portConstraint=eastwest;" vertex="1" parent="pHlB20BNlkgOtDpx7atT-69">
          <mxGeometry y="30" width="250" height="26" as="geometry" />
        </mxCell>
        <mxCell id="pHlB20BNlkgOtDpx7atT-71" value="" style="line;strokeWidth=1;fillColor=none;align=left;verticalAlign=middle;spacingTop=-1;spacingLeft=3;spacingRight=3;rotatable=0;labelPosition=right;points=[];portConstraint=eastwest;labelBackgroundColor=none;labelBorderColor=none;fontSize=11;html=1;" vertex="1" parent="pHlB20BNlkgOtDpx7atT-69">
          <mxGeometry y="56" width="250" height="8" as="geometry" />
        </mxCell>
        <mxCell id="pHlB20BNlkgOtDpx7atT-72" value="+ new(Cliente)" style="text;strokeColor=none;fillColor=none;align=left;verticalAlign=top;spacingLeft=4;spacingRight=4;overflow=hidden;rotatable=0;points=[[0,0.5],[1,0.5]];portConstraint=eastwest;fontStyle=6" vertex="1" parent="pHlB20BNlkgOtDpx7atT-69">
          <mxGeometry y="64" width="250" height="26" as="geometry" />
        </mxCell>
        <mxCell id="pHlB20BNlkgOtDpx7atT-80" value="&lt;span style=&quot;font-size: 12px;&quot;&gt;&lt;b&gt;Guasayana&lt;/b&gt;&lt;/span&gt;" style="swimlane;fontStyle=0;align=center;verticalAlign=top;childLayout=stackLayout;horizontal=1;startSize=30;horizontalStack=0;resizeParent=1;resizeParentMax=0;resizeLast=0;collapsible=0;marginBottom=0;html=1;labelBackgroundColor=none;labelBorderColor=none;fontSize=11;" vertex="1" parent="1">
          <mxGeometry x="300" y="1160" width="250" height="90" as="geometry" />
        </mxCell>
        <mxCell id="pHlB20BNlkgOtDpx7atT-81" value="- monto: Integer" style="text;strokeColor=none;fillColor=none;align=left;verticalAlign=top;spacingLeft=4;spacingRight=4;overflow=hidden;rotatable=0;points=[[0,0.5],[1,0.5]];portConstraint=eastwest;" vertex="1" parent="pHlB20BNlkgOtDpx7atT-80">
          <mxGeometry y="30" width="250" height="26" as="geometry" />
        </mxCell>
        <mxCell id="pHlB20BNlkgOtDpx7atT-82" value="" style="line;strokeWidth=1;fillColor=none;align=left;verticalAlign=middle;spacingTop=-1;spacingLeft=3;spacingRight=3;rotatable=0;labelPosition=right;points=[];portConstraint=eastwest;labelBackgroundColor=none;labelBorderColor=none;fontSize=11;html=1;" vertex="1" parent="pHlB20BNlkgOtDpx7atT-80">
          <mxGeometry y="56" width="250" height="8" as="geometry" />
        </mxCell>
        <mxCell id="pHlB20BNlkgOtDpx7atT-83" value="+ new(Cliente)" style="text;strokeColor=none;fillColor=none;align=left;verticalAlign=top;spacingLeft=4;spacingRight=4;overflow=hidden;rotatable=0;points=[[0,0.5],[1,0.5]];portConstraint=eastwest;fontStyle=6" vertex="1" parent="pHlB20BNlkgOtDpx7atT-80">
          <mxGeometry y="64" width="250" height="26" as="geometry" />
        </mxCell>
        <mxCell id="pHlB20BNlkgOtDpx7atT-36" value="&lt;span style=&quot;font-size: 12px;&quot;&gt;&lt;b&gt;Expert User&lt;/b&gt;&lt;/span&gt;" style="swimlane;fontStyle=0;align=center;verticalAlign=top;childLayout=stackLayout;horizontal=1;startSize=30;horizontalStack=0;resizeParent=1;resizeParentMax=0;resizeLast=0;collapsible=0;marginBottom=0;html=1;labelBackgroundColor=none;labelBorderColor=none;fontSize=11;" vertex="1" parent="1">
          <mxGeometry x="414" y="480" width="250" height="64" as="geometry" />
        </mxCell>
        <mxCell id="pHlB20BNlkgOtDpx7atT-38" value="" style="line;strokeWidth=1;fillColor=none;align=left;verticalAlign=middle;spacingTop=-1;spacingLeft=3;spacingRight=3;rotatable=0;labelPosition=right;points=[];portConstraint=eastwest;labelBackgroundColor=none;labelBorderColor=none;fontSize=11;html=1;" vertex="1" parent="pHlB20BNlkgOtDpx7atT-36">
          <mxGeometry y="30" width="250" height="8" as="geometry" />
        </mxCell>
        <mxCell id="pHlB20BNlkgOtDpx7atT-39" value="+ new(Cliente)" style="text;strokeColor=none;fillColor=none;align=left;verticalAlign=top;spacingLeft=4;spacingRight=4;overflow=hidden;rotatable=0;points=[[0,0.5],[1,0.5]];portConstraint=eastwest;fontStyle=6" vertex="1" parent="pHlB20BNlkgOtDpx7atT-36">
          <mxGeometry y="38" width="250" height="26" as="geometry" />
        </mxCell>
        <mxCell id="pHlB20BNlkgOtDpx7atT-92" value="" style="endArrow=none;html=1;rounded=0;" edge="1" parent="1">
          <mxGeometry width="50" height="50" relative="1" as="geometry">
            <mxPoint x="100" y="1120" as="sourcePoint" />
            <mxPoint x="750" y="1120" as="targetPoint" />
          </mxGeometry>
        </mxCell>
        <mxCell id="pHlB20BNlkgOtDpx7atT-93" value="" style="endArrow=none;html=1;rounded=0;endFill=0;" edge="1" parent="1">
          <mxGeometry width="50" height="50" relative="1" as="geometry">
            <mxPoint x="410" y="1120" as="sourcePoint" />
            <mxPoint x="410" y="1160" as="targetPoint" />
          </mxGeometry>
        </mxCell>
        <mxCell id="pHlB20BNlkgOtDpx7atT-94" value="" style="endArrow=block;html=1;rounded=0;entryX=0.52;entryY=1;entryDx=0;entryDy=0;entryPerimeter=0;endFill=0;" edge="1" parent="1" target="pHlB20BNlkgOtDpx7atT-50">
          <mxGeometry width="50" height="50" relative="1" as="geometry">
            <mxPoint x="410" y="1130" as="sourcePoint" />
            <mxPoint x="450" y="1100" as="targetPoint" />
          </mxGeometry>
        </mxCell>
        <mxCell id="pHlB20BNlkgOtDpx7atT-95" value="" style="endArrow=none;html=1;rounded=0;endFill=0;" edge="1" parent="1">
          <mxGeometry width="50" height="50" relative="1" as="geometry">
            <mxPoint x="100" y="1120" as="sourcePoint" />
            <mxPoint x="100" y="1150" as="targetPoint" />
          </mxGeometry>
        </mxCell>
        <mxCell id="pHlB20BNlkgOtDpx7atT-97" value="" style="endArrow=none;html=1;rounded=0;endFill=0;" edge="1" parent="1">
          <mxGeometry width="50" height="50" relative="1" as="geometry">
            <mxPoint x="750" y="1120" as="sourcePoint" />
            <mxPoint x="750" y="1160" as="targetPoint" />
          </mxGeometry>
        </mxCell>
        <mxCell id="pHlB20BNlkgOtDpx7atT-100" value="&lt;span style=&quot;font-size: 12px;&quot;&gt;&lt;b&gt;Photo&lt;/b&gt;&lt;/span&gt;" style="swimlane;fontStyle=0;align=center;verticalAlign=top;childLayout=stackLayout;horizontal=1;startSize=30;horizontalStack=0;resizeParent=1;resizeParentMax=0;resizeLast=0;collapsible=0;marginBottom=0;html=1;labelBackgroundColor=none;labelBorderColor=none;fontSize=11;" vertex="1" parent="1">
          <mxGeometry x="460" y="800" width="250" height="90" as="geometry" />
        </mxCell>
        <mxCell id="pHlB20BNlkgOtDpx7atT-101" value="- monto: Integer" style="text;strokeColor=none;fillColor=none;align=left;verticalAlign=top;spacingLeft=4;spacingRight=4;overflow=hidden;rotatable=0;points=[[0,0.5],[1,0.5]];portConstraint=eastwest;" vertex="1" parent="pHlB20BNlkgOtDpx7atT-100">
          <mxGeometry y="30" width="250" height="26" as="geometry" />
        </mxCell>
        <mxCell id="pHlB20BNlkgOtDpx7atT-102" value="" style="line;strokeWidth=1;fillColor=none;align=left;verticalAlign=middle;spacingTop=-1;spacingLeft=3;spacingRight=3;rotatable=0;labelPosition=right;points=[];portConstraint=eastwest;labelBackgroundColor=none;labelBorderColor=none;fontSize=11;html=1;" vertex="1" parent="pHlB20BNlkgOtDpx7atT-100">
          <mxGeometry y="56" width="250" height="8" as="geometry" />
        </mxCell>
        <mxCell id="pHlB20BNlkgOtDpx7atT-103" value="+ new(Cliente)" style="text;strokeColor=none;fillColor=none;align=left;verticalAlign=top;spacingLeft=4;spacingRight=4;overflow=hidden;rotatable=0;points=[[0,0.5],[1,0.5]];portConstraint=eastwest;fontStyle=6" vertex="1" parent="pHlB20BNlkgOtDpx7atT-100">
          <mxGeometry y="64" width="250" height="26" as="geometry" />
        </mxCell>
        <mxCell id="pHlB20BNlkgOtDpx7atT-104" value="&lt;span style=&quot;font-size: 12px;&quot;&gt;&lt;b&gt;Map&lt;/b&gt;&lt;/span&gt;" style="swimlane;fontStyle=0;align=center;verticalAlign=top;childLayout=stackLayout;horizontal=1;startSize=30;horizontalStack=0;resizeParent=1;resizeParentMax=0;resizeLast=0;collapsible=0;marginBottom=0;html=1;labelBackgroundColor=none;labelBorderColor=none;fontSize=11;" vertex="1" parent="1">
          <mxGeometry x="-100" y="800" width="250" height="90" as="geometry" />
        </mxCell>
        <mxCell id="pHlB20BNlkgOtDpx7atT-105" value="- monto: Integer" style="text;strokeColor=none;fillColor=none;align=left;verticalAlign=top;spacingLeft=4;spacingRight=4;overflow=hidden;rotatable=0;points=[[0,0.5],[1,0.5]];portConstraint=eastwest;" vertex="1" parent="pHlB20BNlkgOtDpx7atT-104">
          <mxGeometry y="30" width="250" height="26" as="geometry" />
        </mxCell>
        <mxCell id="pHlB20BNlkgOtDpx7atT-106" value="" style="line;strokeWidth=1;fillColor=none;align=left;verticalAlign=middle;spacingTop=-1;spacingLeft=3;spacingRight=3;rotatable=0;labelPosition=right;points=[];portConstraint=eastwest;labelBackgroundColor=none;labelBorderColor=none;fontSize=11;html=1;" vertex="1" parent="pHlB20BNlkgOtDpx7atT-104">
          <mxGeometry y="56" width="250" height="8" as="geometry" />
        </mxCell>
        <mxCell id="pHlB20BNlkgOtDpx7atT-107" value="+ new(Cliente)" style="text;strokeColor=none;fillColor=none;align=left;verticalAlign=top;spacingLeft=4;spacingRight=4;overflow=hidden;rotatable=0;points=[[0,0.5],[1,0.5]];portConstraint=eastwest;fontStyle=6" vertex="1" parent="pHlB20BNlkgOtDpx7atT-104">
          <mxGeometry y="64" width="250" height="26" as="geometry" />
        </mxCell>
        <mxCell id="pHlB20BNlkgOtDpx7atT-108" value="&lt;span style=&quot;font-size: 12px;&quot;&gt;&lt;b&gt;Ubication&lt;/b&gt;&lt;/span&gt;" style="swimlane;fontStyle=0;align=center;verticalAlign=top;childLayout=stackLayout;horizontal=1;startSize=30;horizontalStack=0;resizeParent=1;resizeParentMax=0;resizeLast=0;collapsible=0;marginBottom=0;html=1;labelBackgroundColor=none;labelBorderColor=none;fontSize=11;" vertex="1" parent="1">
          <mxGeometry x="180" y="800" width="250" height="90" as="geometry" />
        </mxCell>
        <mxCell id="pHlB20BNlkgOtDpx7atT-109" value="- monto: Integer" style="text;strokeColor=none;fillColor=none;align=left;verticalAlign=top;spacingLeft=4;spacingRight=4;overflow=hidden;rotatable=0;points=[[0,0.5],[1,0.5]];portConstraint=eastwest;" vertex="1" parent="pHlB20BNlkgOtDpx7atT-108">
          <mxGeometry y="30" width="250" height="26" as="geometry" />
        </mxCell>
        <mxCell id="pHlB20BNlkgOtDpx7atT-110" value="" style="line;strokeWidth=1;fillColor=none;align=left;verticalAlign=middle;spacingTop=-1;spacingLeft=3;spacingRight=3;rotatable=0;labelPosition=right;points=[];portConstraint=eastwest;labelBackgroundColor=none;labelBorderColor=none;fontSize=11;html=1;" vertex="1" parent="pHlB20BNlkgOtDpx7atT-108">
          <mxGeometry y="56" width="250" height="8" as="geometry" />
        </mxCell>
        <mxCell id="pHlB20BNlkgOtDpx7atT-111" value="+ new(Cliente)" style="text;strokeColor=none;fillColor=none;align=left;verticalAlign=top;spacingLeft=4;spacingRight=4;overflow=hidden;rotatable=0;points=[[0,0.5],[1,0.5]];portConstraint=eastwest;fontStyle=6" vertex="1" parent="pHlB20BNlkgOtDpx7atT-108">
          <mxGeometry y="64" width="250" height="26" as="geometry" />
        </mxCell>
        <mxCell id="pHlB20BNlkgOtDpx7atT-112" value="" style="endArrow=none;html=1;rounded=0;entryX=0.473;entryY=1.096;entryDx=0;entryDy=0;entryPerimeter=0;exitX=0.57;exitY=-0.028;exitDx=0;exitDy=0;exitPerimeter=0;" edge="1" parent="1" source="pHlB20BNlkgOtDpx7atT-108" target="pHlB20BNlkgOtDpx7atT-6">
          <mxGeometry width="50" height="50" relative="1" as="geometry">
            <mxPoint x="320" y="790" as="sourcePoint" />
            <mxPoint x="320" y="660" as="targetPoint" />
          </mxGeometry>
        </mxCell>
        <mxCell id="pHlB20BNlkgOtDpx7atT-113" value="" style="endArrow=none;html=1;rounded=0;entryX=0.226;entryY=1.128;entryDx=0;entryDy=0;entryPerimeter=0;exitX=0.75;exitY=0;exitDx=0;exitDy=0;" edge="1" parent="1" source="pHlB20BNlkgOtDpx7atT-104" target="pHlB20BNlkgOtDpx7atT-6">
          <mxGeometry width="50" height="50" relative="1" as="geometry">
            <mxPoint x="320" y="760" as="sourcePoint" />
            <mxPoint x="370" y="710" as="targetPoint" />
          </mxGeometry>
        </mxCell>
        <mxCell id="pHlB20BNlkgOtDpx7atT-114" value="" style="endArrow=none;html=1;rounded=0;entryX=0.929;entryY=1.096;entryDx=0;entryDy=0;entryPerimeter=0;" edge="1" parent="1" target="pHlB20BNlkgOtDpx7atT-6">
          <mxGeometry width="50" height="50" relative="1" as="geometry">
            <mxPoint x="530" y="800" as="sourcePoint" />
            <mxPoint x="530" y="670" as="targetPoint" />
          </mxGeometry>
        </mxCell>
      </root>
    </mxGraphModel>
  </diagram>
</mxfile>
